/* XPM */
static char * matrix_xpm[] = {
"64 64 2 1",
" 	z #70DD99",
".	z #000000",
"                                                                ",
"............................................................... ",
"............................................................... ",
"............................................................... ",
"............................................................... ",
"............................................................... ",
"............................................................... ",
"............................................................... ",
"............................................................... ",
"............................................................... ",
"............................................................... ",
"............................................................... ",
"............................................................... ",
"............................................................... ",
"............................................................... ",
"............................................................... ",
"............................................................... ",
"............................................................... ",
"............................................................... ",
"............................................................... ",
"............................................................... ",
"............................................................... ",
"............................................................... ",
"............................................................... ",
"............................................................... ",
"............................................................... ",
"............................................................... ",
"............................................................... ",
"............................................................... ",
"............................................................... ",
"............................................................... ",
"............................................................... ",
"............................................................... ",
"............................................................... ",
"............................................................... ",
"............................................................... ",
"............................................................... ",
"............................................................... ",
"............................................................... ",
"............................................................... ",
"............................................................... ",
"............................................................... ",
"............................................................... ",
"............................................................... ",
"............................................................... ",
"............................................................... ",
"............................................................... ",
"............................................................... ",
"............................................................... ",
"............................................................... ",
"............................................................... ",
"............................................................... ",
"............................................................... ",
"............................................................... ",
"............................................................... ",
"............................................................... ",
"............................................................... ",
"............................................................... ",
"............................................................... ",
"............................................................... ",
"............................................................... ",
"............................................................... ",
"............................................................... ",
"                                                                "};
